<svg xmlns="http://www.w3.org/2000/svg" viewBox="0 0 91 59" width="91" height="59">
	<defs>
		<clipPath clipPathUnits="userSpaceOnUse" id="cp1">
			<path d="M0 0L90 0L90 58L0 58Z" />
		</clipPath>
	</defs>
	<style>
		tspan { white-space:pre }
		.shp0 { fill: #ffffff }
	</style>
	<g id="Page 1" clip-path="url(#cp1)">
		<path id="Path 1" class="shp0" d="M88.06 15.43C85.29 16.88 51.23 34.69 49.53 35.57C47.83 36.46 46.64 36.57 45 36.57C43.36 36.57 42.17 36.46 40.47 35.57C38.77 34.69 4.71 16.88 1.94 15.43C-0.02 14.41 0 15.6 0 16.53L0 53.21C0 55.3 2.79 58 4.96 58L85.04 58C87.21 58 90 55.3 90 53.21L90 16.53C90 15.6 90.02 14.41 88.06 15.43ZM2.97 5.43C5.41 6.74 39.21 24.9 40.47 25.57C41.73 26.25 43.36 26.57 45 26.57C46.64 26.57 48.27 26.25 49.53 25.57C50.79 24.9 84.59 6.74 87.03 5.43C89.47 4.12 91.78 0 87.3 0L2.7 0C-1.78 0 0.53 4.12 2.97 5.43Z" />
	</g>
</svg>